<svg version="1.2" xmlns="http://www.w3.org/2000/svg" viewBox="0 0 18 15" width="18" height="15"><style>.a{fill:#fff}</style><path class="a" d="m17.7 3.7l-2.4 5.5c-0.2 0.2-0.4 0.4-0.7 0.4l-7.2 0.5 0.4 1.2h7.8c0.9 0 1.6 0.7 1.6 1.6 0 1-0.7 1.7-1.6 1.7-0.9 0-1.7-0.7-1.7-1.7h-7.7c0 1-0.7 1.7-1.6 1.7-0.9 0-1.7-0.7-1.7-1.7 0-0.9 0.8-1.6 1.7-1.6h1.5l-3.2-9.1h-1.9c-0.4 0-0.8-0.3-0.8-0.8 0-0.5 0.4-0.8 0.8-0.8h2.5c0.4 0 0.7 0.2 0.8 0.5l0.5 1.4h12.2c0.4 0 0.8 0.4 0.8 0.8q0 0.2-0.1 0.4zm-12.4 0.4l1.6 4.4 7.1-0.5 1.7-3.9z"/></svg>